<svg width="53" height="43" viewBox="0 0 53 43" fill="none" xmlns="http://www.w3.org/2000/svg">
<path d="M10.98 42.18C10.98 42.5 9.14 42.66 5.46 42.66C1.82 42.66 -6.55651e-07 42.52 -6.55651e-07 42.24V12.78C-6.55651e-07 12.5 1.82 12.36 5.46 12.36C9.14 12.36 10.98 12.48 10.98 12.72V42.18ZM10.98 9.18C10.98 9.46 9.14 9.6 5.46 9.6C1.82 9.6 -6.55651e-07 9.48 -6.55651e-07 9.24V0.599997C-6.55651e-07 0.199998 1.82 -2.14577e-06 5.46 -2.14577e-06C9.14 -2.14577e-06 10.98 0.119999 10.98 0.36V9.18ZM44.9063 42.66C41.4263 42.66 39.5463 42.1 39.2663 40.98L37.2862 33.24H27.7462L26.0063 40.68C25.7663 41.92 23.8462 42.54 20.2462 42.54C18.3262 42.54 16.9062 42.44 15.9862 42.24C15.0662 42 14.6062 41.82 14.6062 41.7L25.2262 1.08C25.2262 0.759998 27.9662 0.599997 33.4463 0.599997C38.9263 0.599997 41.6663 0.759998 41.6663 1.08L52.0463 41.76C52.0463 42.04 51.1263 42.26 49.2863 42.42C47.4463 42.58 45.9863 42.66 44.9063 42.66ZM29.2462 25.62H35.5463L32.8462 13.2H32.4863L29.2462 25.62Z" fill="white"/>
</svg>
