<svg width="141" height="69" viewBox="0 0 141 69" fill="none" xmlns="http://www.w3.org/2000/svg">
<path d="M13.8187 55.64C13.8187 55.96 11.9787 56.12 8.29867 56.12C4.65867 56.12 2.83867 55.98 2.83867 55.7V26.24C2.83867 25.96 4.65867 25.82 8.29867 25.82C11.9787 25.82 13.8187 25.94 13.8187 26.18V55.64ZM13.8187 22.64C13.8187 22.92 11.9787 23.06 8.29867 23.06C4.65867 23.06 2.83867 22.94 2.83867 22.7V14.06C2.83867 13.66 4.65867 13.46 8.29867 13.46C11.9787 13.46 13.8187 13.58 13.8187 13.82V22.64ZM47.7449 56.12C44.2649 56.12 42.3849 55.56 42.1049 54.44L40.1249 46.7H30.5849L28.8449 54.14C28.6049 55.38 26.6849 56 23.0849 56C21.1649 56 19.7449 55.9 18.8249 55.7C17.9049 55.46 17.4449 55.28 17.4449 55.16L28.0649 14.54C28.0649 14.22 30.8049 14.06 36.2849 14.06C41.7649 14.06 44.5049 14.22 44.5049 14.54L54.8849 55.22C54.8849 55.5 53.9649 55.72 52.1249 55.88C50.2849 56.04 48.8249 56.12 47.7449 56.12ZM32.0849 39.08H38.3849L35.6849 26.66H35.3249L32.0849 39.08Z" fill="white"/>
<path d="M62.876 27V18.6H64.076V27H62.876ZM65.8291 27V18.6H67.0291L71.3131 25.044V18.6H72.5131V27H71.3131L67.0291 20.568V27H65.8291ZM76.2226 27V19.584H73.7386V18.6H79.9186V19.584H77.4226V27H76.2226ZM81.1338 27V18.6H86.4378V19.584H82.3338V22.272H86.0778V23.232H82.3338V26.016H86.4378V27H81.1338ZM87.9893 27V18.6H89.1893V26.052H93.0293V27H87.9893ZM94.4346 27V18.6H95.6346V27H94.4346ZM101.024 27.144C100.232 27.144 99.5397 26.964 98.9477 26.604C98.3557 26.244 97.8957 25.74 97.5677 25.092C97.2397 24.444 97.0757 23.688 97.0757 22.824C97.0757 21.968 97.2397 21.212 97.5677 20.556C97.9037 19.9 98.3797 19.388 98.9957 19.02C99.6197 18.644 100.356 18.456 101.204 18.456C102.156 18.456 102.952 18.688 103.592 19.152C104.232 19.608 104.644 20.244 104.828 21.06H103.46C103.34 20.596 103.088 20.232 102.704 19.968C102.32 19.696 101.816 19.56 101.192 19.56C100.6 19.56 100.084 19.692 99.6437 19.956C99.2117 20.22 98.8797 20.596 98.6477 21.084C98.4157 21.572 98.2997 22.152 98.2997 22.824C98.2997 23.504 98.4157 24.088 98.6477 24.576C98.8797 25.064 99.2077 25.436 99.6317 25.692C100.056 25.948 100.544 26.076 101.096 26.076C101.944 26.076 102.58 25.832 103.004 25.344C103.436 24.856 103.688 24.204 103.76 23.388H101.444V22.464H104.972V27H103.88L103.772 25.716C103.58 26.028 103.356 26.292 103.1 26.508C102.852 26.716 102.56 26.876 102.224 26.988C101.888 27.092 101.488 27.144 101.024 27.144ZM106.552 27V18.6H111.856V19.584H107.752V22.272H111.496V23.232H107.752V26.016H111.856V27H106.552ZM113.407 27V18.6H114.607L118.891 25.044V18.6H120.091V27H118.891L114.607 20.568V27H113.407ZM125.529 27.144C124.705 27.144 123.993 26.964 123.393 26.604C122.801 26.236 122.341 25.728 122.013 25.08C121.693 24.424 121.533 23.664 121.533 22.8C121.533 21.944 121.693 21.188 122.013 20.532C122.341 19.876 122.801 19.368 123.393 19.008C123.993 18.64 124.705 18.456 125.529 18.456C126.513 18.456 127.309 18.692 127.917 19.164C128.533 19.636 128.925 20.3 129.093 21.156H127.773C127.653 20.66 127.405 20.264 127.029 19.968C126.661 19.672 126.161 19.524 125.529 19.524C124.961 19.524 124.469 19.656 124.053 19.92C123.637 20.184 123.317 20.56 123.093 21.048C122.869 21.536 122.757 22.12 122.757 22.8C122.757 23.48 122.869 24.068 123.093 24.564C123.317 25.052 123.637 25.428 124.053 25.692C124.469 25.948 124.961 26.076 125.529 26.076C126.161 26.076 126.661 25.936 127.029 25.656C127.405 25.368 127.653 24.98 127.773 24.492H129.093C128.925 25.324 128.533 25.976 127.917 26.448C127.309 26.912 126.513 27.144 125.529 27.144ZM130.528 27V18.6H131.728V27H130.528ZM132.941 27L136.025 18.6H137.333L140.417 27H139.133L136.673 20.04L134.201 27H132.941ZM134.333 24.924L134.669 23.964H138.617L138.953 24.924H134.333ZM62.336 39L65.42 30.6H66.728L69.812 39H68.528L66.068 32.04L63.596 39H62.336ZM63.728 36.924L64.064 35.964H68.012L68.348 36.924H63.728ZM71.0088 39V30.6H73.8528C74.5168 30.6 75.0608 30.712 75.4848 30.936C75.9088 31.16 76.2208 31.46 76.4208 31.836C76.6288 32.204 76.7328 32.624 76.7328 33.096C76.7328 33.544 76.6288 33.96 76.4208 34.344C76.2208 34.72 75.9048 35.024 75.4728 35.256C75.0408 35.48 74.4888 35.592 73.8168 35.592H72.2088V39H71.0088ZM75.4248 39L73.6128 35.268H74.9328L76.8168 39H75.4248ZM72.2088 34.68H73.7688C74.3608 34.68 74.7968 34.536 75.0768 34.248C75.3568 33.952 75.4968 33.576 75.4968 33.12C75.4968 32.656 75.3608 32.288 75.0888 32.016C74.8168 31.744 74.3768 31.608 73.7688 31.608H72.2088V34.68ZM80.2422 39V31.584H77.7582V30.6H83.9382V31.584H81.4422V39H80.2422ZM85.1533 39V30.6H86.3533V39H85.1533ZM88.1065 39V30.6H93.3265V31.584H89.3065V34.308H92.6665V35.268H89.3065V39H88.1065ZM94.6104 39V30.6H95.8104V39H94.6104ZM101.248 39.144C100.424 39.144 99.7115 38.964 99.1115 38.604C98.5195 38.236 98.0595 37.728 97.7315 37.08C97.4115 36.424 97.2515 35.664 97.2515 34.8C97.2515 33.944 97.4115 33.188 97.7315 32.532C98.0595 31.876 98.5195 31.368 99.1115 31.008C99.7115 30.64 100.424 30.456 101.248 30.456C102.232 30.456 103.028 30.692 103.636 31.164C104.252 31.636 104.644 32.3 104.812 33.156H103.492C103.372 32.66 103.124 32.264 102.747 31.968C102.38 31.672 101.88 31.524 101.248 31.524C100.68 31.524 100.188 31.656 99.7715 31.92C99.3555 32.184 99.0355 32.56 98.8115 33.048C98.5875 33.536 98.4755 34.12 98.4755 34.8C98.4755 35.48 98.5875 36.068 98.8115 36.564C99.0355 37.052 99.3555 37.428 99.7715 37.692C100.188 37.948 100.68 38.076 101.248 38.076C101.88 38.076 102.38 37.936 102.747 37.656C103.124 37.368 103.372 36.98 103.492 36.492H104.812C104.644 37.324 104.252 37.976 103.636 38.448C103.028 38.912 102.232 39.144 101.248 39.144ZM106.247 39V30.6H107.447V39H106.247ZM108.66 39L111.744 30.6H113.052L116.136 39H114.852L112.392 32.04L109.92 39H108.66ZM110.052 36.924L110.388 35.964H114.336L114.672 36.924H110.052ZM117.333 39V30.6H118.533V38.052H122.373V39H117.333ZM65.972 51.144C65.38 51.144 64.844 51.028 64.364 50.796C63.884 50.556 63.5 50.196 63.212 49.716C62.932 49.228 62.792 48.608 62.792 47.856V42.6H63.992V47.868C63.992 48.372 64.076 48.788 64.244 49.116C64.412 49.436 64.644 49.676 64.94 49.836C65.244 49.988 65.596 50.064 65.996 50.064C66.404 50.064 66.756 49.988 67.052 49.836C67.348 49.676 67.576 49.436 67.736 49.116C67.904 48.788 67.988 48.372 67.988 47.868V42.6H69.188V47.856C69.188 48.608 69.044 49.228 68.756 49.716C68.468 50.196 68.08 50.556 67.592 50.796C67.104 51.028 66.564 51.144 65.972 51.144ZM70.8565 51V42.6H72.0565L76.3405 49.044V42.6H77.5405V51H76.3405L72.0565 44.568V51H70.8565ZM78.754 51L81.838 42.6H83.146L86.23 51H84.946L82.486 44.04L80.014 51H78.754ZM80.146 48.924L80.482 47.964H84.43L84.766 48.924H80.146ZM87.4268 51V42.6H88.8428L91.6868 48.276L94.5188 42.6H95.9468V51H94.7468V44.7L92.1428 49.824H91.2188L88.6268 44.712V51H87.4268ZM97.6924 51V42.6H100.8C101.384 42.6 101.872 42.696 102.264 42.888C102.656 43.072 102.948 43.328 103.14 43.656C103.34 43.976 103.44 44.34 103.44 44.748C103.44 45.172 103.348 45.528 103.164 45.816C102.98 46.104 102.736 46.328 102.432 46.488C102.136 46.64 101.816 46.728 101.472 46.752L101.64 46.632C102.008 46.64 102.344 46.74 102.648 46.932C102.952 47.116 103.192 47.364 103.368 47.676C103.544 47.988 103.632 48.332 103.632 48.708C103.632 49.14 103.528 49.532 103.32 49.884C103.112 50.228 102.804 50.5 102.396 50.7C101.988 50.9 101.488 51 100.896 51H97.6924ZM98.8924 50.004H100.74C101.268 50.004 101.676 49.884 101.964 49.644C102.26 49.396 102.408 49.048 102.408 48.6C102.408 48.16 102.256 47.808 101.952 47.544C101.656 47.28 101.244 47.148 100.716 47.148H98.8924V50.004ZM98.8924 46.224H100.668C101.172 46.224 101.556 46.108 101.82 45.876C102.084 45.636 102.216 45.308 102.216 44.892C102.216 44.492 102.084 44.176 101.82 43.944C101.556 43.704 101.16 43.584 100.632 43.584H98.8924V46.224ZM104.406 51L107.49 42.6H108.798L111.882 51H110.598L108.138 44.04L105.666 51H104.406ZM105.798 48.924L106.134 47.964H110.082L110.418 48.924H105.798Z" fill="white"/>
</svg>
